<?xml version="1.0" encoding="UTF-8" standalone="no"?>
<svg
   version="1.1"
   width="60"
   height="60"
   id="svg2"
   viewBox="0 0 60 60"
   xml:space="preserve"
   xmlns="http://www.w3.org/2000/svg"
   xmlns:svg="http://www.w3.org/2000/svg"><defs
   id="defs6" />
   <g
   id="g5205"
   transform="matrix(0.5284009,0,0,0.5284009,0.05103624,-0.80657757)">
       <path
   d="m 51.307866,19.787065 c 0,0 4.497276,9.116866 4.497276,9.116866 0,0 0,-8.915481 0,-8.915481 0,0 2.618783,0 2.618783,0 0,0 0,7.874261 0,7.874261 0,0 1.564002,0 1.564002,0 0,0 0,-10.337717 0,-10.337717 5.65825,0.736965 10.028346,5.575597 10.028346,11.43421 0,2.76643 -0.974687,5.312284 -2.598313,7.299531 0,0 -3.764147,0 -3.764147,0 1.947326,-1.382834 3.316851,-3.53308 3.675098,-6.003448 0,0 -4.75598,0 -4.75598,0 0,0 0,6.003448 0,6.003448 0,0 -2.585004,0 -2.585004,0 0,0 0,-6.003448 0,-6.003448 0,0 -1.564002,0 -1.564002,0 0,0 0,9.595637 0,9.595637 0,0 -7.621314,-15.623905 -7.621314,-15.623905 -1.040068,1.903826 -1.256296,3.222174 -1.256296,4.732185 0,3.009781 1.488003,5.679999 3.768882,7.299531 0,0 -3.664478,0 -3.664478,0 -1.644992,-1.993643 -2.697982,-4.512885 -2.697982,-7.299531 0,-3.585796 1.462544,-6.819483 4.355129,-9.172139 0,0 0,0 0,0 z m 11.265065,8.075646 c 0,0 4.783106,0 4.783106,0 -0.366436,-2.993151 -2.211918,-5.528513 -4.783106,-6.854025 0,0 0,6.854025 0,6.854025 0,0 0,0 0,0 z"
   id="path18"
   style="fill-opacity:1;fill-rule:nonzero;stroke:none;stroke-width:0.262032" />


    </g>
<path
   id="rect1733"
   style="fill:none;fill-rule:evenodd;stroke-width:1;stroke-linecap:round;stroke-linejoin:round;stroke-dasharray:none"
   d="m 24.575628,-18.876234 36.23367,0 V 17.710081 H 24.575628 Z M 24.79915,14.267958 C 45.212428,11.615981 44.689617,-11.64067 59.166932,-18.853239 M 32.135534,17.69189 32.611771,12.077042 M 44.970136,17.65004 38.993684,6.9092198 38.94076,6.9097197 M 60.738865,8.8473795 44.321099,-0.63039328 M 60.82508,-10.380274 49.764573,-9.891257"
   transform="rotate(45.541232)" /><g
   aria-label="CLEANACRES"
   id="text16756"
   style="font-size:6.97736px;line-height:125%;font-family:'Segoe UI';-inkscape-font-specification:'Segoe UI';letter-spacing:0px;word-spacing:0px;fill:none;stroke-width:0.872169px"
   transform="matrix(0.88223576,0,0,1.0097044,3.8852306,0.06220025)"><path
     d="m 8.9286623,17.64392 q -0.5417005,0.286181 -1.3491407,0.286181 -1.042515,0 -1.669388,-0.671162 -0.6268717,-0.671162 -0.6268717,-1.761374 0,-1.171979 0.7052317,-1.894245 0.705231,-0.722265 1.7886287,-0.722265 0.6950128,0 1.15154,0.201008 V 13.6919 q -0.5246665,-0.292994 -1.158353,-0.292994 -0.8415077,0 -1.3661727,0.56214 -0.521258,0.562141 -0.521258,1.50245 0,0.892611 0.487189,1.42409 0.490595,0.528071 1.284406,0.528071 0.7358952,0 1.2741887,-0.327064 z"
     id="path17484" /><path
     d="m 13.778008,17.848335 h -2.534744 v -4.885514 h 0.572362 v 4.367663 h 1.962382 z"
     id="path17486" /><path
     d="m 18.076624,17.848335 h -2.589255 v -4.885514 h 2.480233 v 0.517851 h -1.907871 v 1.625098 h 1.764781 v 0.514444 h -1.764781 v 1.71027 h 2.016893 z"
     id="path17488" /><path
     d="M 23.878427,17.848335 H 23.244741 L 22.72689,16.478756 h -2.071404 l -0.487189,1.369579 h -0.637093 l 1.873803,-4.885514 h 0.592803 z m -1.338918,-1.884023 -0.766555,-2.081625 q -0.03748,-0.102207 -0.07495,-0.327063 h -0.01363 q -0.03407,0.207821 -0.07836,0.327063 l -0.759742,2.081625 z"
     id="path17490" /><path
     d="m 41.727702,17.64392 q -0.5417,0.286181 -1.349138,0.286181 -1.042516,0 -1.669388,-0.671162 -0.626872,-0.671162 -0.626872,-1.761374 0,-1.171979 0.705231,-1.894245 0.705231,-0.722265 1.78863,-0.722265 0.69501,0 1.151537,0.201008 V 13.6919 q -0.524665,-0.292994 -1.158351,-0.292994 -0.841508,0 -1.366172,0.56214 -0.521258,0.562141 -0.521258,1.50245 0,0.892611 0.487188,1.42409 0.490596,0.528071 1.284407,0.528071 0.735893,0 1.274186,-0.327064 z"
     id="path17496" /><path
     d="m 46.584769,17.848335 h -0.681383 l -0.81766,-1.369579 Q 44.973298,16.287969 44.867684,16.155099 44.76207,16.018822 44.649641,15.93365 44.54062,15.84848 44.411157,15.811001 q -0.126055,-0.04088 -0.28618,-0.04088 h -0.470154 v 2.078217 h -0.572362 v -4.885514 h 1.458159 q 0.32025,0 0.589396,0.08177 0.272553,0.07836 0.470154,0.24189 0.201008,0.163532 0.313437,0.40883 0.112428,0.241891 0.112428,0.568955 0,0.255518 -0.07836,0.470154 -0.07495,0.211229 -0.218043,0.378167 -0.139683,0.166939 -0.340691,0.286181 -0.197601,0.115835 -0.446306,0.180567 v 0.01363 q 0.122649,0.05451 0.211229,0.126056 0.09199,0.06814 0.173752,0.163532 0.08177,0.09539 0.160125,0.218042 0.08177,0.119242 0.180567,0.279367 z m -2.929946,-4.367663 v 1.771595 h 0.776776 q 0.214636,0 0.395202,-0.06473 0.183973,-0.06473 0.316843,-0.183973 0.13287,-0.122649 0.207822,-0.296401 0.07495,-0.17716 0.07495,-0.395202 0,-0.391796 -0.255519,-0.609838 -0.252111,-0.221449 -0.732486,-0.221449 z"
     id="path17498" /><path
     d="m 50.325105,17.848335 h -2.589254 v -4.885514 h 2.480233 v 0.517851 h -1.907872 v 1.625098 h 1.764782 v 0.514444 h -1.764782 v 1.71027 h 2.016893 z"
     id="path17500" /><path
     d="m 51.517067,17.650734 v -0.674569 q 0.115835,0.102208 0.27596,0.183974 0.163532,0.08177 0.340692,0.139683 0.180566,0.05451 0.361133,0.08517 0.180566,0.03066 0.333877,0.03066 0.528072,0 0.786997,-0.194194 0.262333,-0.197601 0.262333,-0.565548 0,-0.197601 -0.08858,-0.344098 -0.08517,-0.146497 -0.238484,-0.265739 -0.153311,-0.122649 -0.36454,-0.23167 -0.207821,-0.112429 -0.449712,-0.235077 -0.255519,-0.129463 -0.476968,-0.262333 -0.22145,-0.132869 -0.384982,-0.292994 -0.163531,-0.160125 -0.258925,-0.361133 -0.09199,-0.204415 -0.09199,-0.476968 0,-0.333878 0.146498,-0.579176 0.146497,-0.248704 0.384981,-0.408829 0.238484,-0.160125 0.541699,-0.238484 0.306622,-0.07836 0.623465,-0.07836 0.722266,0 1.052737,0.173752 v 0.643907 Q 53.84058,13.3989 53.162604,13.3989 q -0.18738,0 -0.374761,0.04088 -0.18738,0.03748 -0.333877,0.126055 -0.146498,0.08858 -0.238484,0.228264 -0.09199,0.139683 -0.09199,0.340691 0,0.18738 0.06814,0.323657 0.07155,0.136276 0.207822,0.248705 0.136277,0.112428 0.330471,0.218042 0.197601,0.105614 0.453119,0.23167 0.262333,0.129463 0.49741,0.272553 0.235077,0.143091 0.412236,0.316843 0.17716,0.173753 0.279367,0.384982 0.105615,0.211228 0.105615,0.483781 0,0.361133 -0.143091,0.613245 -0.139683,0.248705 -0.381574,0.405423 -0.238484,0.156718 -0.55192,0.224856 -0.313436,0.07155 -0.660941,0.07155 -0.115836,0 -0.286181,-0.02044 -0.170346,-0.01703 -0.347505,-0.05451 -0.17716,-0.03407 -0.337285,-0.08517 -0.156718,-0.05451 -0.252112,-0.119242 z"
     id="path17502" /></g><ellipse
   style="fill:none;fill-rule:evenodd;stroke-width:1;stroke-linecap:butt;stroke-linejoin:bevel;stroke-dasharray:none;stroke-opacity:1"
   id="path17507"
   cx="30.379215"
   cy="30.273365"
   rx="25.755978"
   ry="26.032925" /><path
   style="fill:none;fill-rule:evenodd;stroke-width:1;stroke-linecap:butt;stroke-linejoin:miter;stroke-dasharray:none;stroke-opacity:1"
   d="M 9.9435661,29.520118 C 14.345113,25.09963 21.809567,25.206754 25.721776,32.284533"
   id="path17509" /></svg>
