<svg
  version="1.1"
  id="svg2"
  viewBox="0 0 60 60"
  xml:space="preserve"
  xmlns="http://www.w3.org/2000/svg"
  xmlns:svg="http://www.w3.org/2000/svg">

  <g
    id="g5205"
    transform="matrix(0.5,0,0,0.5,0.17253826,0.09111276)">
    <!-- transform="scale(.5) translate(10 10)"> -->

  <path
    d="m 30.13379,23.58789 c 0,0 17.16309,34.79297 17.16309,34.79297 0,0 0,-34.02442 0,-34.02442 0,0 9.99414,0 9.99414,0 0,0 0,30.05078 0,30.05078 0,0 5.96875,0 5.96875,0 0,0 0,-39.45214 0,-39.45214 21.59375,2.8125 38.27148,21.27832 38.27148,43.63672 0,10.55761 -3.71973,20.27343 -9.91602,27.85742 0,0 -14.36523,0 -14.36523,0 7.43164,-5.27735 12.6582,-13.4834 14.02539,-22.91114 0,0 -18.15039,0 -18.15039,0 0,0 0,22.91114 0,22.91114 0,0 -9.86523,0 -9.86523,0 0,0 0,-22.91114 0,-22.91114 0,0 -5.96875,0 -5.96875,0 0,0 0,36.62012 0,36.62012 0,0 -29.08545,-59.62598 -29.08545,-59.62598 -3.96924,7.26563 -4.79444,12.29688 -4.79444,18.05958 0,11.48632 5.67871,21.67675 14.3833,27.85742 0,0 -13.98486,0 -13.98486,0 -6.27783,-7.6084 -10.29639,-17.22266 -10.29639,-27.85742 0,-13.68458 5.58155,-26.0254 16.62061,-35.00391 0,0 0,0 0,0 z M 73.125,54.40722 c 0,0 18.25391,0 18.25391,0 C 89.98047,42.98437 82.9375,33.30859 73.125,28.25 c 0,0 0,26.15722 0,26.15722 0,0 0,0 0,0 z"
    id="path18"
    style="fill-opacity:1;fill-rule:nonzero;stroke:none" />
  <path
    d="m 3.44336,58.39844 c 0,-29.86524 24.2124,-54.07813 54.07812,-54.07813 29.86719,0 54.07813,24.21289 54.07813,54.07813 0,29.86621 -24.21094,54.0791 -54.07813,54.0791 -29.86572,0 -54.07812,-24.21289 -54.07812,-54.0791 0,0 0,0 0,0 z"
    id="path20"
    style="fill:none;stroke-width:0.95731;stroke-linecap:butt;stroke-linejoin:miter;stroke-miterlimit:4;stroke-dasharray:none;stroke-opacity:1" />
  <path
    d="m 8.41357,58.39844 c 0,-27.1211 21.98633,-49.10743 49.10791,-49.10743 27.12207,0 49.10938,21.98633 49.10938,49.10743 0,27.12207 -21.98731,49.10839 -49.10938,49.10839 -27.12158,0 -49.10791,-21.98632 -49.10791,-49.10839 0,0 0,0 0,0 z"
    id="path22"
    style="fill:none;stroke-width:1.0186;stroke-linecap:butt;stroke-linejoin:miter;stroke-miterlimit:4;stroke-dasharray:none;stroke-opacity:1" />
  </g>
</svg>


