<?xml version="1.0" encoding="UTF-8"?>
<svg width="700pt" height="700pt" version="1.1" viewBox="0 0 700 700" xmlns="http://www.w3.org/2000/svg" xmlns:xlink="http://www.w3.org/1999/xlink">
 <defs>
 </defs>
 <g>
  <path d="m542.5 210h35v17.5h-35z"/>
  <path d="m542.5 253.75h35v17.5h-35z"/>
  <path d="m542.5 297.5h35v17.5h-35z"/>
  <path d="m393.75 78.75h122.5v17.5h-122.5z"/>
  <path d="m393.75 122.5h183.75v17.5h-183.75z"/>
  <path d="m507.5 166.25h70v17.5h-70z"/>
  <path d="m393.75 157.5h17.5v17.5h-17.5z"/>
  <path d="m516.25 218.75h-8.75v262.5h-165.17l141.04-35.262c3.8945-0.97266 6.6289-4.4727 6.6289-8.4883v-262.5c0-2.6953-1.2422-5.2383-3.3633-6.8984-2.125-1.6562-4.8945-2.2422-7.5078-1.5898l-141.86 35.465c-15.648 3.8945-28.633 14.77-35.207 29.496-8.1836-8.1562-19.262-12.73-30.812-12.723h-175c-4.832 0-8.75 3.918-8.75 8.75v306.25c0 2.3203 0.92188 4.5469 2.5625 6.1875s3.8672 2.5625 6.1875 2.5625h420c2.3203 0 4.5469-0.92188 6.1875-2.5625s2.5625-3.8672 2.5625-6.1875v-306.25c0-2.3203-0.92188-4.5469-2.5625-6.1875s-3.8672-2.5625-6.1875-2.5625zm-411.25 306.25v-26.25h166.25c6.9609 0.007812 13.633 2.7773 18.551 7.6992 4.9219 4.918 7.6914 11.59 7.6992 18.551zm192.5-34.98c-7.5625-5.6992-16.777-8.7812-26.25-8.7695h-166.25v-245h166.25c6.9609 0.007812 13.633 2.7773 18.551 7.6992 4.9219 4.918 7.6914 11.59 7.6992 18.551zm17.5-227.52v-9.5898c-0.007812-7.8086 2.5977-15.395 7.4023-21.551 4.8047-6.1523 11.531-10.52 19.109-12.406l130.99-32.746v244.46l-135.23 33.809c-8.2695 2.0586-15.91 6.0977-22.266 11.773zm192.5 262.5h-192.5c0.007812-6.9609 2.7773-13.633 7.6992-18.551 4.918-4.9219 11.59-7.6914 18.551-7.6992h166.25z"/>
  <path d="m338.48 245.45 105-35 5.5352 16.602-105 35z"/>
  <path d="m338.48 289.2 105-35 5.5352 16.602-105 35z"/>
  <path d="m338.48 332.95 105-35 5.5352 16.602-105 35z"/>
  <path d="m338.48 376.7 105-35 5.5352 16.602-105 35z"/>
  <path d="m338.48 420.45 105-35 5.5352 16.602-105 35z"/>
  <path d="m131.25 262.5h131.25v17.5h-131.25z"/>
  <path d="m131.25 306.25h131.25v17.5h-131.25z"/>
  <path d="m131.25 350h131.25v17.5h-131.25z"/>
  <path d="m131.25 393.75h131.25v17.5h-131.25z"/>
  <path d="m131.25 437.5h131.25v17.5h-131.25z"/>
  <path d="m144.38 201.25c15.078-0.015625 29.535-6.0156 40.199-16.676 10.66-10.664 16.66-25.121 16.676-40.199 0-0.082031 0-0.16406-0.007812-0.25 3.8555-2.6797 8.4375-4.1133 13.133-4.1133s9.2773 1.4336 13.133 4.1133c0 0.082031-0.007812 0.16406-0.007812 0.25 0 20.32 10.84 39.094 28.438 49.254s39.277 10.16 56.875 0 28.438-28.934 28.438-49.254c0-1.4727-0.074219-2.9297-0.18359-4.375h0.18359v-87.5c0-12.504-6.6719-24.059-17.5-30.312-10.828-6.25-24.172-6.25-35 0-10.828 6.2539-17.5 17.809-17.5 30.312v8.75h17.5v-8.75c0-6.2539 3.3359-12.031 8.75-15.156s12.086-3.125 17.5 0 8.75 8.9023 8.75 15.156v50.891c-13.984-13.469-33.875-18.863-52.746-14.305-18.875 4.5586-34.109 18.438-40.406 36.805-10.355-4.4609-22.09-4.4609-32.445 0-6.2969-18.367-21.531-32.246-40.406-36.805-18.871-4.5586-38.762 0.83594-52.746 14.305v-50.891c0-6.2539 3.3359-12.031 8.75-15.156s12.086-3.125 17.5 0 8.75 8.9023 8.75 15.156v8.75h17.5v-8.75c0-12.504-6.6719-24.059-17.5-30.312-10.828-6.25-24.172-6.25-35 0-10.828 6.2539-17.5 17.809-17.5 30.312v87.5h0.18359c-0.10938 1.4453-0.18359 2.9023-0.18359 4.375 0.015625 15.078 6.0156 29.535 16.676 40.199 10.664 10.66 25.121 16.66 40.199 16.676zm140-96.25c10.441 0 20.457 4.1484 27.844 11.531 7.3828 7.3867 11.531 17.402 11.531 27.844s-4.1484 20.457-11.531 27.844c-7.3867 7.3828-17.402 11.531-27.844 11.531s-20.457-4.1484-27.844-11.531c-7.3828-7.3867-11.531-17.402-11.531-27.844 0.011719-10.438 4.1641-20.449 11.547-27.828 7.3789-7.3828 17.391-11.535 27.828-11.547zm-140 0c10.441 0 20.457 4.1484 27.844 11.531 7.3828 7.3867 11.531 17.402 11.531 27.844s-4.1484 20.457-11.531 27.844c-7.3867 7.3828-17.402 11.531-27.844 11.531s-20.457-4.1484-27.844-11.531c-7.3828-7.3867-11.531-17.402-11.531-27.844 0.011719-10.438 4.1641-20.449 11.547-27.828 7.3789-7.3828 17.391-11.535 27.828-11.547z"/>
  <path d="m116.31 142.56 26.25-26.25 12.375 12.375-26.25 26.25z"/>
  <path d="m256.31 142.56 26.25-26.25 12.375 12.375-26.25 26.25z"/>
  <path d="m609.94 81.312-61.25-61.25c-1.6406-1.6406-3.8672-2.5625-6.1875-2.5625h-175c-4.832 0-8.75 3.918-8.75 8.75v148.75h17.5v-140h157.5v52.5c0 2.3203 0.92188 4.5469 2.5625 6.1875s3.8672 2.5625 6.1875 2.5625h52.5v245h-52.5v17.5h61.25c2.3203 0 4.5469-0.92188 6.1875-2.5625s2.5625-3.8672 2.5625-6.1875v-262.5c0-2.3203-0.92188-4.5469-2.5625-6.1875zm-58.688-2.5625v-31.375l31.375 31.375z"/>

 </g>
</svg>
